<?xml version="1.0" encoding="utf-8"?>
<!-- Generator: Adobe Illustrator 19.1.0, SVG Export Plug-In . SVG Version: 6.00 Build 0)  -->
<svg version="1.1" id="Layer_1" xmlns="http://www.w3.org/2000/svg" xmlns:xlink="http://www.w3.org/1999/xlink" x="0px" y="0px"
	 viewBox="-190 363.6 417.4 75.4" style="enable-background:new -190 363.6 417.4 75.4;" xml:space="preserve">
<style type="text/css">
	.st0{fill:#FFFFFF;stroke:#55C9EF;stroke-width:2;stroke-miterlimit:10;}
</style>
<g>
	<polygon class="st0" points="-187.6,366 -187.6,438 -115.6,438 	"/>
	<polygon class="st0" points="-115.6,366 -115.6,438 -187.6,438 	"/>
	<circle class="st0" cx="-88.6" cy="402" r="36"/>
	<circle class="st0" cx="-25.6" cy="402" r="36"/>
	<polygon class="st0" points="1.4,366 1.4,438 73.4,438 	"/>
	<polygon class="st0" points="100.4,402 100.4,366 64.4,366 64.4,402 64.4,438 100.4,438 136.4,438 136.4,402 	"/>
	<rect x="127.4" y="366" class="st0" width="36" height="72"/>
	<polygon class="st0" points="226.4,366 208.4,366 172.4,366 154.4,366 154.4,402 172.4,402 172.4,438 208.4,438 208.4,402 
		226.4,402 	"/>
</g>
</svg>
